<svg width="16" height="16" viewBox="0 0 16 16" fill="none" xmlns="http://www.w3.org/2000/svg">
<g id="feed-subscribed">
<path id="Path" d="M3.25001 11.75C3.80229 11.75 4.25001 12.1977 4.25001 12.75C4.24989 13.3022 3.80222 13.75 3.25001 13.75C2.69779 13.75 2.25012 13.3022 2.25 12.75C2.25 12.1977 2.69772 11.75 3.25001 11.75ZM3 8.25C4.25979 8.25 5.46762 8.7508 6.35842 9.6416C7.24915 10.5324 7.75003 11.7403 7.75003 13C7.74991 13.4141 7.41416 13.75 7.00002 13.75C6.58588 13.75 6.25014 13.4141 6.25002 13C6.25002 12.1381 5.90729 11.3116 5.29787 10.7021C4.68837 10.0927 3.86196 9.75 3 9.75C2.58586 9.75 2.25012 9.41411 2.25 9C2.25 8.58579 2.58579 8.25 3 8.25ZM3 5.25C5.05544 5.25 7.02709 6.06612 8.4805 7.51953C9.93384 8.97293 10.75 10.9446 10.75 13C10.7499 13.4141 10.4142 13.75 10 13.75C9.5859 13.75 9.25016 13.4141 9.25004 13C9.25004 11.3425 8.59101 9.75315 7.41897 8.58106C6.24686 7.40895 4.65762 6.75 3 6.75C2.58586 6.75 2.25012 6.41411 2.25 6C2.25 5.58579 2.58579 5.25 3 5.25ZM11.8418 6.89063C12.2728 7.5144 12.6401 8.18196 12.9317 8.88574C13.4719 10.1899 13.7501 11.5884 13.7501 13C13.7499 13.4141 13.4142 13.75 13.0001 13.75C12.5859 13.75 12.2502 13.4141 12.25 13C12.25 11.7853 12.0107 10.5822 11.5459 9.45996C11.2564 8.76094 10.8827 8.10154 10.4346 7.49609C10.8813 7.51248 11.3337 7.36073 11.6866 7.03516L11.8418 6.89063ZM13.2413 2.19922C13.5456 1.91833 14.0199 1.93704 14.3008 2.24121C14.5815 2.54552 14.5629 3.01989 14.2588 3.30078L11.0088 6.30078C10.7501 6.53946 10.3664 6.56247 10.084 6.37402L10.0743 6.36621C10.0727 6.36516 10.0709 6.36433 10.0694 6.36328L9.96977 6.28027L8.21976 4.53027C7.92693 4.23745 7.92706 3.76264 8.21976 3.46973C8.51265 3.17683 8.98741 3.17683 9.28031 3.46973L10.5205 4.70996L13.2413 2.19922ZM3 2.25C4.41172 2.25 5.81003 2.52812 7.11428 3.06836C7.15561 3.08548 7.19624 3.10444 7.23733 3.12207C6.94802 3.62003 6.925 4.22911 7.16799 4.74512C6.96228 4.64127 6.75359 4.54256 6.54006 4.4541C5.41779 3.98925 4.21474 3.75 3 3.75C2.58586 3.75 2.25012 3.41411 2.25 3C2.25 2.58579 2.58579 2.25 3 2.25Z" fill="#5F6B7C"/>
</g>
</svg>
