<svg width="16" height="16" viewBox="0 0 16 16" fill="none" xmlns="http://www.w3.org/2000/svg">
<g id="new-prescription">
<path id="Path" d="M5.75 1.75C6.67826 1.75 7.56823 2.11901 8.22461 2.77539C8.88099 3.43177 9.25 4.32174 9.25 5.25C9.25 6.17826 8.88099 7.06823 8.22461 7.72461C7.79316 8.15606 7.26045 8.46213 6.68262 8.62207L8.75 10.6895L9.96973 9.46973C10.2626 9.17683 10.7374 9.17683 11.0303 9.46973C11.3232 9.76262 11.3232 10.2374 11.0303 10.5303L9.81055 11.75L11.0303 12.9697C11.3232 13.2626 11.3232 13.7374 11.0303 14.0303C10.7374 14.3232 10.2626 14.3232 9.96973 14.0303L8.75 12.8105L7.53027 14.0303C7.23738 14.3232 6.76262 14.3232 6.46973 14.0303C6.17683 13.7374 6.17683 13.2626 6.46973 12.9697L7.68945 11.75L4.68945 8.75H3.25V12C3.25 12.4142 2.91421 12.75 2.5 12.75C2.08579 12.75 1.75 12.4142 1.75 12V2.5C1.75 2.08579 2.08579 1.75 2.5 1.75H5.75ZM3.25 7.25H5.75C6.28043 7.25 6.78899 7.03913 7.16406 6.66406C7.53913 6.28899 7.75 5.78043 7.75 5.25C7.75 4.71957 7.53914 4.21101 7.16406 3.83594C6.78899 3.46086 6.28043 3.25 5.75 3.25H3.25V7.25ZM12.75 0.75C13.1642 0.75 13.5 1.08579 13.5 1.5V3H15C15.4142 3 15.75 3.33579 15.75 3.75C15.75 4.16421 15.4142 4.5 15 4.5H13.5V6C13.5 6.41421 13.1642 6.75 12.75 6.75C12.3358 6.75 12 6.41421 12 6V4.5H10.5C10.0858 4.5 9.75 4.16421 9.75 3.75C9.75 3.33579 10.0858 3 10.5 3H12V1.5C12 1.08579 12.3358 0.75 12.75 0.75Z" fill="#5F6B7C"/>
</g>
</svg>
