<svg width="16" height="16" viewBox="0 0 16 16" fill="none" xmlns="http://www.w3.org/2000/svg">
<g id="rotate-ccw">
<path id="Path" d="M9.5 6.5C9.91421 6.5 10.25 6.83579 10.25 7.25V13.5C10.25 13.9142 9.91419 14.25 9.5 14.25H3.25C2.83581 14.25 2.50003 13.9142 2.5 13.5V7.25C2.5 6.83579 2.83579 6.5 3.25 6.5H9.5ZM4 12.75H8.75V8H4V12.75ZM9.21973 1.46973C9.51262 1.17684 9.98738 1.17684 10.2803 1.46973C10.5731 1.76263 10.5732 2.23739 10.2803 2.53028L10.0605 2.75H12C13.2426 2.75 14.25 3.75736 14.25 5V6.5C14.25 6.91419 13.9142 7.25 13.5 7.25C13.0858 7.25 12.75 6.91419 12.75 6.5V5C12.75 4.58579 12.4142 4.25 12 4.25H10.0605L10.2803 4.46973C10.5731 4.76263 10.5732 5.23739 10.2803 5.53028C9.98739 5.82313 9.51261 5.82313 9.21973 5.53028L7.71973 4.03028C7.42684 3.73739 7.42686 3.26263 7.71973 2.96973L9.21973 1.46973Z" fill="#5F6B7C"/>
</g>
</svg>
