<svg width="16" height="16" viewBox="0 0 16 16" fill="none" xmlns="http://www.w3.org/2000/svg">
<g id="selection-box-edit">
<path id="Path" d="M2 10.75C2.41421 10.75 2.75 11.0858 2.75 11.5V13.25H4.5C4.91421 13.25 5.25 13.5858 5.25 14C5.25 14.4142 4.91421 14.75 4.5 14.75H2.5C2.16848 14.75 1.85063 14.6182 1.61621 14.3838C1.38179 14.1494 1.25 13.8315 1.25 13.5V11.5C1.25 11.0858 1.58579 10.75 2 10.75ZM9 13.25C9.41421 13.25 9.75 13.5858 9.75 14C9.75 14.4142 9.41421 14.75 9 14.75H7C6.58579 14.75 6.25 14.4142 6.25 14C6.25 13.5858 6.58579 13.25 7 13.25H9ZM14 10.75C14.4142 10.75 14.75 11.0858 14.75 11.5V13.5C14.75 13.8315 14.6182 14.1494 14.3838 14.3838C14.1494 14.6182 13.8315 14.75 13.5 14.75H11.5C11.0858 14.75 10.75 14.4142 10.75 14C10.75 13.5858 11.0858 13.25 11.5 13.25H13.25V11.5C13.25 11.0858 13.5858 10.75 14 10.75ZM2 6.25C2.41421 6.25 2.75 6.58579 2.75 7V9C2.75 9.41421 2.41421 9.75 2 9.75C1.58579 9.75 1.25 9.41421 1.25 9V7C1.25 6.58579 1.58579 6.25 2 6.25ZM14 6.25C14.4142 6.25 14.75 6.58579 14.75 7V9C14.75 9.41421 14.4142 9.75 14 9.75C13.5858 9.75 13.25 9.41421 13.25 9V7C13.25 6.58579 13.5858 6.25 14 6.25ZM13.9248 0.12207C15.0017 0.122087 15.875 0.99532 15.875 2.07227C15.8749 2.61045 15.6557 3.09916 15.3037 3.45117L14.5459 4.20898L10.2549 8.49902C10.1488 8.60513 10.0136 8.67777 9.86621 8.70605L7.7666 9.1084C7.52238 9.15526 7.27057 9.07818 7.09473 8.90234C6.91888 8.72649 6.84181 8.4747 6.88867 8.23047L7.29102 6.13086L7.32031 6.02246C7.35742 5.91726 7.4185 5.82174 7.49805 5.74219L11.7881 1.45117L12.5459 0.693359C12.8979 0.341359 13.3866 0.122133 13.9248 0.12207ZM13.9248 1.62207C13.8004 1.62213 13.6886 1.67171 13.6064 1.75391L12.8496 2.51172L8.7207 6.63965L8.56934 7.42676L9.35645 7.27539L13.4854 3.14746L14.2432 2.39062C14.3254 2.30841 14.3749 2.19665 14.375 2.07227C14.375 1.82375 14.1733 1.62209 13.9248 1.62207ZM4.5 1.25C4.91421 1.25 5.25 1.58579 5.25 2C5.25 2.41421 4.91421 2.75 4.5 2.75H2.75V4.5C2.75 4.91421 2.41421 5.25 2 5.25C1.58579 5.25 1.25 4.91421 1.25 4.5V2.5C1.25 2.16848 1.38179 1.85063 1.61621 1.61621C1.85063 1.38179 2.16848 1.25 2.5 1.25H4.5ZM9 1.25C9.41421 1.25 9.75 1.58579 9.75 2C9.75 2.41421 9.41421 2.75 9 2.75H7C6.58579 2.75 6.25 2.41421 6.25 2C6.25 1.58579 6.58579 1.25 7 1.25H9Z" fill="#5F6B7C"/>
</g>
</svg>
