<svg width="16" height="16" viewBox="0 0 16 16" fill="none" xmlns="http://www.w3.org/2000/svg">
<g id="team">
<path id="Path" d="M3.89258 9.25098C3.01672 10.0684 2.5 11.2051 2.5 12.417V13.75C2.5 14.1642 2.16421 14.5 1.75 14.5C1.33579 14.5 1 14.1642 1 13.75V12.417C1 11.4935 1.39364 10.6185 2.0752 9.98242C2.64432 9.45133 3.37627 9.12182 4.15137 9.02832C4.06282 9.0993 3.97609 9.17305 3.89258 9.25098ZM8.89258 9C9.83309 9 10.745 9.34806 11.4248 9.98242C12.1064 10.6185 12.5 11.4935 12.5 12.417V13.75C12.5 14.1642 12.1642 14.5 11.75 14.5C11.3358 14.5 11 14.1642 11 13.75V12.417C11 11.926 10.7914 11.4432 10.4014 11.0791C10.0096 10.7135 9.46741 10.5 8.89258 10.5H7.10742C6.53259 10.5 5.99045 10.7135 5.59863 11.0791C5.20856 11.4432 5 11.926 5 12.417V13.75C5 14.1642 4.66421 14.5 4.25 14.5C3.83579 14.5 3.5 14.1642 3.5 13.75V12.417C3.5 11.4935 3.89364 10.6185 4.5752 9.98242C5.25498 9.34806 6.16691 9 7.10742 9H8.89258ZM11.8477 9.02832C12.6231 9.12166 13.3554 9.4511 13.9248 9.98242C14.6064 10.6185 15 11.4935 15 12.417V13.75C15 14.1642 14.6642 14.5 14.25 14.5C13.8358 14.5 13.5 14.1642 13.5 13.75V12.417C13.5 11.2051 12.9833 10.0684 12.1074 9.25098C12.0237 9.17287 11.9364 9.09943 11.8477 9.02832ZM8 1.5C9.79493 1.5 11.25 2.95507 11.25 4.75C11.25 6.54493 9.79493 8 8 8C6.20507 8 4.75 6.54493 4.75 4.75C4.75 2.95507 6.20507 1.5 8 1.5ZM5.25098 1.50977C4.33302 2.28934 3.75 3.45133 3.75 4.75C3.75 6.04874 4.3338 7.20983 5.25195 7.98926C3.57296 7.86249 2.25 6.46144 2.25 4.75C2.25 3.03887 3.57241 1.63697 5.25098 1.50977ZM10.748 1.50977C12.4271 1.6365 13.75 3.03854 13.75 4.75C13.75 6.46243 12.4255 7.86389 10.7451 7.98926C11.6643 7.20989 12.25 6.04957 12.25 4.75C12.25 3.45106 11.6663 2.28934 10.748 1.50977ZM8 3C7.0335 3 6.25 3.7835 6.25 4.75C6.25 5.7165 7.0335 6.5 8 6.5C8.9665 6.5 9.75 5.7165 9.75 4.75C9.75 3.7835 8.9665 3 8 3ZM8.75 4.75C8.75 4.80762 8.74082 4.8631 8.72852 4.91699C8.74069 4.85747 8.74794 4.79626 8.74902 4.7334C8.74914 4.73892 8.75 4.74445 8.75 4.75Z" fill="#5F6B7C"/>
</g>
</svg>
